ffmpeg version 3.4.8-0ubuntu0.2 Copyright (c) 2000-2020 the FFmpeg developers
  built with gcc 7 (Ubuntu 7.5.0-3ubuntu1~18.04)
  configuration: --prefix=/usr --extra-version=0ubuntu0.2 --toolchain=hardened --libdir=/usr/lib/x86_64-linux-gnu --incdir=/usr/include/x86_64-linux-gnu --enable-gpl --disable-stripping --enable-avresample --enable-avisynth --enable-gnutls --enable-ladspa --enable-libass --enable-libbluray --enable-libbs2b --enable-libcaca --enable-libcdio --enable-libflite --enable-libfontconfig --enable-libfreetype --enable-libfribidi --enable-libgme --enable-libgsm --enable-libmp3lame --enable-libmysofa --enable-libopenjpeg --enable-libopenmpt --enable-libopus --enable-libpulse --enable-librubberband --enable-librsvg --enable-libshine --enable-libsnappy --enable-libsoxr --enable-libspeex --enable-libssh --enable-libtheora --enable-libtwolame --enable-libvorbis --enable-libvpx --enable-libwavpack --enable-libwebp --enable-libx265 --enable-libxml2 --enable-libxvid --enable-libzmq --enable-libzvbi --enable-omx --enable-openal --enable-opengl --enable-sdl2 --enable-libdc1394 --enable-libdrm --enable-libiec61883 --enable-chromaprint --enable-frei0r --enable-libopencv --enable-libx264 --enable-shared
  libavutil      55. 78.100 / 55. 78.100
  libavcodec     57.107.100 / 57.107.100
  libavformat    57. 83.100 / 57. 83.100
  libavdevice    57. 10.100 / 57. 10.100
  libavfilter     6.107.100 /  6.107.100
  libavresample   3.  7.  0 /  3.  7.  0
  libswscale      4.  8.100 /  4.  8.100
  libswresample   2.  9.100 /  2.  9.100
  libpostproc    54.  7.100 / 54.  7.100
[rawvideo @ 0x55e6475e5a20] Estimating duration from bitrate, this may be inaccurate
Input #0, rawvideo, from '../../SVC-Encoder-20220109T061506Z-001/SVC-Encoder/Dataset/RollerCoaster/6f_2x2/tile_yuv/f0_t2_480x480.yuv':
  Duration: 00:00:10.00, start: 0.000000, bitrate: 82944 kb/s
    Stream #0:0: Video: rawvideo (I420 / 0x30323449), yuv420p, 480x480, 82944 kb/s, 30 tbr, 30 tbn, 30 tbc
Stream mapping:
  Stream #0:0 -> #0:0 (rawvideo (native) -> h264 (libx264))
Press [q] to stop, [?] for help
[libx264 @ 0x55e6475f2c60] using cpu capabilities: MMX2 SSE2Fast LZCNT SSSE3 SSE4.2 AVX
[libx264 @ 0x55e6475f2c60] profile High, level 3.0
Output #0, rawvideo, to 'RollerCoaster_f0_t2_480x480_x264_QP_36.h264':
  Metadata:
    encoder         : Lavf57.83.100
    Stream #0:0: Video: h264 (libx264), yuv420p, 480x480, q=-1--1, 30 fps, 30 tbn, 30 tbc
    Metadata:
      encoder         : Lavc57.107.100 libx264
    Side data:
      cpb: bitrate max/min/avg: 0/0/0 buffer size: 0 vbv_delay: -1
frame=  142 fps=0.0 q=42.0 PSNR=Y:nan U:nan V:nan *:nan size=      60kB time=00:00:03.30 bitrate= 150.0kbits/s speed=6.59x    frame=  250 fps=249 q=42.0 PSNR=Y:nan U:nan V:nan *:nan size=     118kB time=00:00:06.90 bitrate= 140.3kbits/s speed=6.88x    frame=  300 fps=223 q=42.0 LPSNR=Y:inf U:inf V:inf *:inf size=     168kB time=00:00:09.93 bitrate= 138.7kbits/s speed=7.37x    
video:168kB audio:0kB subtitle:0kB other streams:0kB global headers:0kB muxing overhead: 0.000000%
[libx264 @ 0x55e6475f2c60] frame I:2     Avg QP:34.95  size:  8132  PSNR Mean Y:35.55 U:41.86 V:44.52 Avg:36.93 Global:36.84
[libx264 @ 0x55e6475f2c60] frame P:76    Avg QP:36.33  size:  1281  PSNR Mean Y:34.06 U:41.39 V:44.16 Avg:35.52 Global:35.51
[libx264 @ 0x55e6475f2c60] frame B:222   Avg QP:41.47  size:   264  PSNR Mean Y:33.79 U:41.33 V:44.12 Avg:35.26 Global:35.25
[libx264 @ 0x55e6475f2c60] consecutive B-frames:  1.3%  0.0%  0.0% 98.7%
[libx264 @ 0x55e6475f2c60] mb I  I16..4: 28.1% 61.2% 10.7%
[libx264 @ 0x55e6475f2c60] mb P  I16..4:  1.0%  0.8%  0.1%  P16..4: 31.4%  7.0%  1.4%  0.0%  0.0%    skip:58.2%
[libx264 @ 0x55e6475f2c60] mb B  I16..4:  0.0%  0.0%  0.0%  B16..8: 19.0%  0.7%  0.0%  direct: 0.0%  skip:80.2%  L0:34.4% L1:65.1% BI: 0.5%
[libx264 @ 0x55e6475f2c60] 8x8 transform intra:53.3% inter:80.6%
[libx264 @ 0x55e6475f2c60] coded y,uvDC,uvAC intra: 31.7% 36.3% 10.1% inter: 2.2% 1.7% 0.0%
[libx264 @ 0x55e6475f2c60] i16 v,h,dc,p: 36% 40% 12% 12%
[libx264 @ 0x55e6475f2c60] i8 v,h,dc,ddl,ddr,vr,hd,vl,hu: 13% 16% 43%  3%  2%  2%  2% 14%  5%
[libx264 @ 0x55e6475f2c60] i4 v,h,dc,ddl,ddr,vr,hd,vl,hu: 26% 17% 17%  5%  2%  3%  2% 24%  2%
[libx264 @ 0x55e6475f2c60] i8c dc,h,v,p: 67% 14% 13%  5%
[libx264 @ 0x55e6475f2c60] Weighted P-Frames: Y:1.3% UV:0.0%
[libx264 @ 0x55e6475f2c60] ref P L0: 59.5% 18.9% 17.2%  4.3%  0.1%
[libx264 @ 0x55e6475f2c60] ref B L0: 86.6% 11.8%  1.6%
[libx264 @ 0x55e6475f2c60] ref B L1: 89.3% 10.7%
[libx264 @ 0x55e6475f2c60] PSNR Mean Y:33.866 U:41.348 V:44.136 Avg:35.340 Global:35.324 kb/s:137.74
